<svg xmlns="http://www.w3.org/2000/svg" width="24" height="25" fill="none" viewBox="0 0 24 25">
  <path fill="#B8B8D2" fill-rule="evenodd" d="M13.75 2.734a1 1 0 0 1 1 1v4a1 1 0 1 1-2 0v-1h-10a1 1 0 0 1 0-2h10v-1a1 1 0 0 1 1-1Zm3 3a1 1 0 0 1 1-1h3a1 1 0 1 1 0 2h-3a1 1 0 0 1-1-1Zm-6 4a1 1 0 0 1 1 1v1h10a1 1 0 1 1 0 2h-10v1a1 1 0 1 1-2 0v-4a1 1 0 0 1 1-1Zm-9 3a1 1 0 0 1 1-1h4a1 1 0 1 1 0 2h-4a1 1 0 0 1-1-1Zm12 4a1 1 0 0 1 1 1v4a1 1 0 1 1-2 0v-1h-10a1 1 0 1 1 0-2h10v-1a1 1 0 0 1 1-1Zm3 3a1 1 0 0 1 1-1h3a1 1 0 1 1 0 2h-3a1 1 0 0 1-1-1Z" clip-rule="evenodd"/>
</svg>
