<svg xmlns="http://www.w3.org/2000/svg" width="24" height="25" fill="none" viewBox="0 0 24 25">
  <path fill="#1F1F39" d="M9.793 9.527a1 1 0 0 1 1.414 0L13 11.32l1.793-1.793a1 1 0 0 1 1.414 1.414l-1.793 1.793 1.793 1.793a1 1 0 0 1-1.414 1.414L13 14.148l-1.793 1.793a1 1 0 0 1-1.414-1.414l1.793-1.793-1.793-1.793a1 1 0 0 1 0-1.414Z"/>
  <path fill="#1F1F39" fill-rule="evenodd" d="M6.207 5.624A1 1 0 0 1 7 5.234h15a1 1 0 0 1 1 1v13a1 1 0 0 1-1 1H7a1 1 0 0 1-.793-.39l-5-6.5a1 1 0 0 1 0-1.22l5-6.5Zm1.285 1.61-4.23 5.5 4.23 5.5H21v-11H7.492Z" clip-rule="evenodd"/>
</svg>
