<svg xmlns="http://www.w3.org/2000/svg" width="24" height="25" fill="none" viewBox="0 0 24 25">
  <path fill="#FF6905" fill-rule="evenodd" d="M11.997 2.234a1 1 0 0 1 .898.555l2.864 5.77 6.385.931a1 1 0 0 1 .556 1.704l-4.645 4.549 1.103 6.32a1 1 0 0 1-1.456 1.053L12 20.076l-5.701 3.04a1 1 0 0 1-1.456-1.055l1.111-6.318-4.652-4.548a1 1 0 0 1 .556-1.705l6.42-.931 2.824-5.765a1 1 0 0 1 .896-.56Zm.008 3.261L9.841 9.913a1 1 0 0 1-.755.55l-4.94.716 3.583 3.502a1 1 0 0 1 .285.889l-.847 4.816 4.362-2.325a1 1 0 0 1 .94 0l4.366 2.327-.84-4.82a1 1 0 0 1 .285-.886l3.578-3.504-4.907-.716a1 1 0 0 1-.751-.545l-2.195-4.422Z" clip-rule="evenodd"/>
</svg>
