<svg xmlns="http://www.w3.org/2000/svg" width="24" height="25" fill="none" viewBox="0 0 24 25">
  <path fill="#1F1F39" d="M11.5 10.234a1 1 0 1 0 0 2h1.001a1 1 0 0 0 0-2H11.5Zm4 1a1 1 0 0 1 1-1h1a1 1 0 1 1 0 2h-1a1 1 0 0 1-1-1Zm-9-1a1 1 0 1 0 0 2h1a1 1 0 1 0 0-2h-1Z"/>
  <path fill="#1F1F39" fill-rule="evenodd" d="M2 2.734a1 1 0 0 0-1 1v15a1 1 0 0 0 1 1h7.086l2.207 2.207a1 1 0 0 0 1.414 0l2.207-2.207H22a1 1 0 0 0 1-1v-15a1 1 0 0 0-1-1H2Zm1 15v-13h18v13h-6.5a1 1 0 0 0-.707.293L12 19.82l-1.793-1.793a1 1 0 0 0-.707-.293H3Z" clip-rule="evenodd"/>
</svg>
