<svg xmlns="http://www.w3.org/2000/svg" width="24" height="25" fill="none" viewBox="0 0 24 25">
  <path fill="#1F1F39" fill-rule="evenodd" d="M7 7.234a4.5 4.5 0 1 1 9 0 4.5 4.5 0 0 1-9 0Zm4.5-2.5a2.5 2.5 0 1 0 0 5 2.5 2.5 0 0 0 0-5Zm-1.143 9h2.286c1.084 0 1.958 0 2.666.058.729.06 1.369.185 1.96.487a5.001 5.001 0 0 1 2.186 2.185c.302.592.428 1.233.487 1.961.058.708.058 1.582.058 2.666v.643a1 1 0 0 1-1 1H4a1 1 0 0 1-1-1v-.643c0-1.084 0-1.958.058-2.666.06-.729.185-1.369.487-1.96a5 5 0 0 1 2.185-2.186c.592-.302 1.233-.428 1.961-.487.708-.058 1.582-.058 2.666-.058Zm-5.03 3.638a3 3 0 0 1 1.311-1.311c.263-.134.611-.226 1.216-.276.617-.05 1.41-.051 2.546-.051h2.2c1.137 0 1.929 0 2.546.051.605.05.953.142 1.216.276a3 3 0 0 1 1.311 1.311c.134.263.226.611.276 1.216.044.542.05 1.22.05 2.146H5c0-.927.007-1.604.051-2.146.05-.605.142-.953.276-1.216Z" clip-rule="evenodd"/>
  <path fill="#1F1F39" d="M9 7.234a2.5 2.5 0 1 1 5 0 2.5 2.5 0 0 1-5 0Zm-2.362 8.827a3 3 0 0 0-1.311 1.311c-.134.263-.226.611-.276 1.216-.044.542-.05 1.22-.05 2.146H18c0-.927-.007-1.604-.051-2.146-.05-.605-.142-.953-.276-1.216a3 3 0 0 0-1.311-1.311c-.263-.134-.611-.226-1.216-.276-.617-.05-1.41-.051-2.546-.051h-2.2c-1.137 0-1.929 0-2.546.051-.605.05-.953.142-1.216.276Z"/>
</svg>
