<svg xmlns="http://www.w3.org/2000/svg" width="24" height="25" fill="none" viewBox="0 0 24 25">
  <path fill="#1F1F39" fill-rule="evenodd" d="M2.293 3.027a1 1 0 0 1 1.414 0l18 18a1 1 0 1 1-1.414 1.414l-6.628-6.628A3.5 3.5 0 0 1 8.92 11.07L2.293 4.441a1 1 0 0 1 0-1.414Zm8.21 9.623a1.5 1.5 0 0 0 1.581 1.581l-1.582-1.58ZM12 7.734c-.59 0-1.172.079-1.743.22a1 1 0 0 1-.482-1.94A9.222 9.222 0 0 1 12 5.733c3.11 0 5.835 1.677 7.71 3.23a21.647 21.647 0 0 1 2.863 2.882 12.399 12.399 0 0 1 .21.265l.012.017.004.005.002.002-.801.599.801.598v.001l-.002.002-.004.005-.012.017a8.274 8.274 0 0 1-.21.265 21.645 21.645 0 0 1-2.864 2.882 1 1 0 1 1-1.276-1.54 19.635 19.635 0 0 0 2.275-2.23 19.635 19.635 0 0 0-2.275-2.23c-1.745-1.447-4.02-2.77-6.433-2.77Zm10 5 .801.598a1 1 0 0 0 0-1.196l-.801.598ZM5.699 9.096a1 1 0 0 1-.132 1.408 19.65 19.65 0 0 0-2.275 2.23 19.64 19.64 0 0 0 2.275 2.23c1.745 1.447 4.02 2.77 6.433 2.77a7.22 7.22 0 0 0 1.757-.224 1 1 0 1 1 .486 1.94 9.231 9.231 0 0 1-2.243.284c-3.11 0-5.835-1.677-7.71-3.23a21.64 21.64 0 0 1-2.863-2.882 12.492 12.492 0 0 1-.21-.265l-.012-.017-.004-.005-.002-.002.801-.599a302.55 302.55 0 0 1-.801-.598l.002-.003.004-.005.012-.017a8.696 8.696 0 0 1 .21-.265A21.645 21.645 0 0 1 4.29 8.964a1 1 0 0 1 1.408.132ZM2 12.734l-.801-.598a1 1 0 0 0 0 1.196L2 12.734Z" clip-rule="evenodd"/>
</svg>
